<?xml version="1.0" standalone="no"?>
<!DOCTYPE svg PUBLIC "-//W3C//DTD SVG 20010904//EN"
 "http://www.w3.org/TR/2001/REC-SVG-20010904/DTD/svg10.dtd">
<svg version="1.0" xmlns="http://www.w3.org/2000/svg"
 width="176.000000pt" height="176.000000pt" viewBox="0 0 176.000000 176.000000"
 preserveAspectRatio="xMidYMid meet">
<metadata>
Created by potrace 1.14, written by Peter Selinger 2001-2017
</metadata>
<g transform="translate(0.000000,176.000000) scale(0.100000,-0.100000)"
fill="#000000" stroke="none">
<path d="M75 1339 c-19 -17 -40 -47 -45 -67 -7 -24 -10 -163 -8 -404 3 -352 4
-368 24 -394 11 -15 33 -37 48 -48 27 -21 35 -21 786 -21 751 0 759 0 786 21
15 11 37 33 48 48 20 26 21 42 24 394 2 241 -1 380 -8 404 -5 20 -26 50 -45
67 l-36 31 -769 0 -769 0 -36 -31z m639 -254 l26 -24 0 -161 c0 -158 -1 -161
-25 -185 -20 -21 -34 -25 -80 -25 -46 0 -60 4 -80 25 -24 24 -25 27 -25 185
l0 161 26 24 c22 20 38 25 79 25 41 0 57 -5 79 -25z m247 12 c23 -17 39 -52
39 -81 0 -22 -5 -26 -28 -26 -22 0 -30 7 -39 31 -10 25 -16 30 -40 27 -25 -3
-28 -7 -31 -45 -3 -42 -2 -42 48 -68 80 -41 90 -55 90 -130 0 -57 -3 -69 -25
-90 -19 -20 -34 -25 -74 -25 -62 0 -99 28 -108 83 -6 37 -6 37 30 37 31 0 36
-3 39 -27 2 -20 9 -29 26 -31 32 -5 52 15 52 53 0 36 -16 53 -78 84 -76 39
-96 148 -37 198 29 26 108 31 136 10z m254 -10 c45 -38 44 -154 -2 -171 -12
-5 -10 -10 11 -27 23 -18 26 -27 26 -85 0 -56 -4 -68 -25 -89 -21 -22 -33 -25
-100 -25 l-75 0 0 210 0 210 69 0 c58 0 74 -4 96 -23z"/>
<path d="M600 1031 c-5 -11 -10 -70 -10 -131 0 -122 8 -150 45 -150 37 0 45
28 45 150 0 122 -8 150 -45 150 -14 0 -29 -8 -35 -19z"/>
<path d="M1110 995 l0 -56 33 3 c31 3 32 4 32 53 0 49 -1 50 -32 53 l-33 3 0
-56z"/>
<path d="M1110 815 c0 -65 0 -65 28 -65 38 0 52 17 52 61 0 43 -21 69 -56 69
-23 0 -24 -3 -24 -65z"/>
</g>
</svg>
